<svg version="1.1" class="svg-logo-wacul" xmlns="http://www.w3.org/2000/svg" xmlns:xlink="http://www.w3.org/1999/xlink" x="0px" y="0px" viewBox="0 0 342.5 75.6" style="enable-background:new 0 0 342.5 75.6;" xml:space="preserve">
	<g>
		<defs>
			<rect class="svg-logo-wacul-si1" width="342.5" height="75.6"></rect>
		</defs>
		<clipPath class="svg-logo-wacul-si2">
			<use xlink:href=".svg-logo-wacul-si1" style="overflow:visible;"></use>
		</clipPath>
		<g class="st0">
			<defs>
				<rect class="svg-logo-wacul-si3" y="0" width="342.5" height="75.6"></rect>
			</defs>
			<clipPath class="svg-logo-wacul-si4">
				<use xlink:href=".svg-logo-wacul-si3" style="overflow:visible;"></use>
			</clipPath>
			<path class="st1" d="M201.8,73.1c-3.7,1.7-7.9,2.5-12.8,2.5c-4.4,0-8.4-0.7-12.2-2.2c-3.7-1.4-6.9-3.5-9.7-6.1
				c-2.7-2.6-4.9-5.8-6.4-9.5c-1.6-3.7-2.3-7.8-2.3-12.2c0-4.5,0.8-8.7,2.4-12.4c1.6-3.7,3.8-6.8,6.5-9.4c2.8-2.6,6-4.6,9.8-6
				c3.7-1.4,7.8-2.1,12.1-2.1c4,0,8,0.7,11.8,2.1c3.9,1.4,7,3.5,9.4,6.2l-9.3,9.3c-1.3-1.8-3-3.1-5.1-3.9c-2.1-0.9-4.2-1.3-6.4-1.3
				c-2.4,0-4.6,0.4-6.6,1.3c-2,0.9-3.7,2.1-5.2,3.6c-1.4,1.6-2.6,3.4-3.4,5.5c-0.8,2.1-1.2,4.4-1.2,6.9c0,2.6,0.4,4.9,1.2,7.1
				c0.8,2.1,1.9,4,3.3,5.5c1.4,1.5,3.1,2.7,5.1,3.6c2,0.9,4.1,1.3,6.5,1.3c2.7,0,5.1-0.5,7.1-1.6c2-1.1,3.7-2.5,4.9-4.2l9.5,9
				C208.6,69.1,205.5,71.4,201.8,73.1"></path>
			<path class="st1" d="M132.8,74.1l-4.4-11.1h-22l-4.2,11.1H87.3l23.8-56.8h13.3L148,74.1H132.8z M117.6,32.4l-7.2,19.5h14.3
				L117.6,32.4z"></path>
			<path class="st1" d="M277.4,62c-1.2,2.8-2.8,5.2-4.9,7.2c-2.1,2-4.7,3.6-7.7,4.7c-3,1.1-6.4,1.7-10.1,1.7
				c-3.7,0-7.1-0.6-10.1-1.7c-3-1.1-5.5-2.7-7.6-4.7c-2.1-2-3.7-4.4-4.8-7.2c-1.1-2.8-1.7-5.9-1.7-9.3V17.3h13.6v34.2
				c0,1.6,0.2,3,0.6,4.4c0.4,1.4,1,2.6,1.8,3.7c0.8,1.1,1.9,2,3.3,2.6c1.4,0.6,3,1,4.9,1s3.6-0.3,4.9-1c1.4-0.6,2.5-1.5,3.3-2.6
				c0.9-1.1,1.5-2.3,1.8-3.7c0.4-1.4,0.6-2.9,0.6-4.4V17.3h13.7v35.4C279.2,56.1,278.6,59.2,277.4,62"></path>
			<polygon class="st1" points="302.1,74.1 302.1,17.3 315.9,17.3 315.9,62.1 342.5,62.1 342.5,74.1"></polygon>
			<polygon class="st2" points="103.6,0 63.7,33.5 72.5,0"></polygon>
			<polygon class="st1" points="66,74.1 52.5,74.1 41.2,38.5 41,38.5 29.8,74.1 16.1,74.1 0,17.3 14.8,17.3 23.7,52.1 24,52.1
				34.1,17.3 48.4,17.3 58.6,52.1 58.8,52.1 76.5,37.3"></polygon>
		</g>
	</g>
</svg>